<svg width="73" height="50" viewBox="0 0 73 50" fill="none" xmlns="http://www.w3.org/2000/svg">
<path fill-rule="evenodd" clip-rule="evenodd" d="M36.602 35.0613C34.1353 37.1406 30.9354 38.3958 27.4389 38.3958C19.6371 38.3958 13.3125 32.1464 13.3125 24.4374C13.3125 16.7285 19.6371 10.4791 27.4389 10.4791C30.9354 10.4791 34.1353 11.7343 36.602 13.8136C39.0688 11.7343 42.2686 10.4791 45.7651 10.4791C53.5669 10.4791 59.8916 16.7285 59.8916 24.4374C59.8916 32.1464 53.5669 38.3958 45.7651 38.3958C42.2686 38.3958 39.0688 37.1406 36.602 35.0613Z" fill="#ED0006"/>
<path fill-rule="evenodd" clip-rule="evenodd" d="M36.602 35.0613C39.6394 32.5011 41.5654 28.6915 41.5654 24.4374C41.5654 20.1834 39.6394 16.3738 36.602 13.8136C39.0688 11.7343 42.2686 10.4791 45.7651 10.4791C53.5669 10.4791 59.8915 16.7285 59.8915 24.4374C59.8915 32.1464 53.5669 38.3958 45.7651 38.3958C42.2686 38.3958 39.0688 37.1406 36.602 35.0613Z" fill="#F9A000"/>
<path fill-rule="evenodd" clip-rule="evenodd" d="M36.6021 35.0613C39.6394 32.5011 41.5654 28.6915 41.5654 24.4375C41.5654 20.1834 39.6394 16.3738 36.6021 13.8136C33.5647 16.3738 31.6388 20.1834 31.6388 24.4375C31.6388 28.6915 33.5647 32.5011 36.6021 35.0613Z" fill="#FF5E00"/>
</svg>
