<svg width="73" height="50" viewBox="0 0 73 50" fill="none" xmlns="http://www.w3.org/2000/svg">
<path fill-rule="evenodd" clip-rule="evenodd" d="M23.3339 33.038H19.0427L15.8249 20.4008C15.6722 19.8195 15.3479 19.3056 14.8709 19.0633C13.6804 18.4546 12.3686 17.9702 10.9375 17.7259V17.2394H17.8502C18.8042 17.2394 19.5198 17.9702 19.639 18.819L21.3086 27.9347L25.5976 17.2394H29.7695L23.3339 33.038ZM32.1546 33.038H28.102L31.4391 17.2394H35.4917L32.1546 33.038ZM40.7348 21.6161C40.854 20.7652 41.5696 20.2786 42.4044 20.2786C43.7162 20.1565 45.1452 20.4008 46.3377 21.0074L47.0533 17.6059C45.8607 17.1193 44.5489 16.875 43.3584 16.875C39.4251 16.875 36.5629 19.0633 36.5629 22.1005C36.5629 24.411 38.5903 25.6242 40.0213 26.355C41.5696 27.0838 42.1659 27.5703 42.0466 28.2991C42.0466 29.3922 40.854 29.8787 39.6636 29.8787C38.2325 29.8787 36.8014 29.5143 35.4917 28.9056L34.7762 32.3093C36.2072 32.9159 37.7555 33.1602 39.1866 33.1602C43.5969 33.2802 46.3377 31.094 46.3377 27.8125C46.3377 23.6802 40.7348 23.4379 40.7348 21.6161V21.6161ZM60.5208 33.038L57.303 17.2394H53.8467C53.1311 17.2394 52.4156 17.7259 52.1771 18.4546L46.2185 33.038H50.3903L51.223 30.7296H56.349L56.826 33.038H60.5208ZM54.443 21.4939L55.6334 27.4482H52.2963L54.443 21.4939Z" fill="#172B85"/>
</svg>
